<mxfile host="app.diagrams.net" modified="2023-10-26T01:55:23.641Z" agent="Mozilla/5.0 (Windows NT 10.0; Win64; x64) AppleWebKit/537.36 (KHTML, like Gecko) Chrome/118.0.0.0 Safari/537.36 Edg/118.0.2088.61" version="22.0.8" etag="NpECpd0CoYvMVnaE0MD1" type="github">
  <diagram name="Page-1" id="9GCaCfmUztJyMzLwBYI2">
    <mxGraphModel>
      <root>
        <mxCell id="0" />
        <mxCell id="1" parent="0" />
      </root>
    </mxGraphModel>
  </diagram>
</mxfile>
